<?xml version="1.0" standalone="no"?>
<!DOCTYPE svg PUBLIC "-//W3C//DTD SVG 20010904//EN"
 "http://www.w3.org/TR/2001/REC-SVG-20010904/DTD/svg10.dtd">
<svg version="1.0" xmlns="http://www.w3.org/2000/svg"
 width="600.000000pt" height="600.000000pt" viewBox="0 0 600.000000 600.000000"
 preserveAspectRatio="xMidYMid meet">
<metadata>
Created by potrace 1.11, written by Peter Selinger 2001-2013
</metadata>
<g transform="translate(0.000000,600.000000) scale(0.100000,-0.100000)"
fill="#000000" stroke="none">
<path d="M310 2995 l0 -2605 2670 0 2670 0 0 2605 0 2605 -2670 0 -2670 0 0
-2605z m5250 0 l0 -2515 -2580 0 -2580 0 0 2515 0 2515 2580 0 2580 0 0 -2515z"/>
<path d="M4205 4571 c-194 -23 -415 -107 -556 -212 -231 -171 -377 -414 -429
-715 -28 -162 -50 -213 -118 -275 -54 -49 -55 -52 -37 -66 11 -8 27 -20 35
-26 29 -22 69 -83 85 -127 9 -25 22 -89 31 -145 69 -467 267 -773 609 -942
154 -77 265 -98 510 -98 208 0 260 7 427 57 l67 20 55 -26 c154 -73 397 -47
456 49 21 34 26 99 11 124 -8 12 -14 13 -36 3 -28 -13 -76 -15 -111 -6 -11 3
-32 24 -47 47 l-27 41 0 258 c0 255 0 259 24 296 40 62 59 75 108 69 104 -14
93 -20 93 50 0 54 -4 65 -29 92 -44 46 -85 61 -165 61 -52 0 -83 -6 -111 -20
-38 -20 -39 -20 -82 0 -58 26 -170 27 -238 1 -49 -19 -50 -19 -87 0 -51 26
-153 26 -208 -1 -69 -34 -108 -134 -71 -185 12 -17 17 -18 40 -7 33 15 100 16
127 2 18 -10 19 -23 19 -193 -1 -280 -17 -354 -97 -432 -67 -65 -201 -84 -310
-44 -77 29 -133 87 -164 170 -21 60 -23 81 -27 364 -2 202 0 317 8 351 15 72
59 135 119 174 28 18 51 37 51 41 0 5 -13 15 -30 24 -47 25 -99 75 -123 119
-20 38 -22 57 -25 254 -4 235 8 332 53 427 67 141 201 215 389 215 124 0 262
-35 338 -85 67 -45 97 -139 64 -204 -30 -57 -132 -104 -204 -93 -31 4 -32 3
-32 -30 0 -20 10 -50 23 -69 30 -44 121 -99 165 -99 l34 0 -6 -47 c-4 -27 -14
-65 -23 -86 -9 -20 -14 -40 -10 -43 14 -15 89 -15 139 0 42 12 67 28 106 68
29 29 55 61 58 71 5 16 13 17 58 12 43 -6 61 -3 94 14 40 20 102 85 102 107 0
6 -17 29 -38 51 -31 32 -42 56 -61 128 -32 119 -79 209 -146 278 -157 161
-350 235 -630 242 -82 2 -182 0 -220 -4z m-615 -539 c0 -4 -9 -39 -20 -77 -68
-234 -85 -371 -84 -680 0 -337 22 -500 99 -720 13 -38 21 -73 18 -78 -16 -25
-83 91 -122 212 -26 80 -65 278 -87 443 -17 128 -25 149 -71 178 -13 8 -14 13
-6 16 48 20 54 38 83 205 41 246 79 368 148 471 23 35 42 49 42 30z m1197
-1272 c22 -44 30 -204 14 -276 -7 -29 -24 -65 -41 -85 l-29 -34 -1 228 c0 225
0 227 20 215 11 -7 28 -29 37 -48z"/>
<path d="M1269 4545 c-54 -17 -104 -64 -120 -113 -11 -33 -8 -116 4 -129 4 -3
35 2 71 12 79 21 123 15 160 -24 l27 -28 -90 -299 c-106 -352 -112 -371 -151
-438 -41 -73 -104 -132 -177 -167 -35 -17 -63 -34 -63 -38 0 -5 14 -14 30 -21
42 -17 88 -73 96 -116 4 -20 4 -60 1 -88 -8 -80 -263 -842 -290 -867 -57 -54
-129 -69 -212 -44 -47 13 -59 14 -66 3 -14 -22 -10 -107 6 -138 35 -67 173
-97 262 -57 39 18 42 18 74 1 44 -23 152 -23 197 0 28 14 36 15 65 3 89 -38
204 -27 262 25 39 34 52 79 38 135 -10 42 -10 42 -100 23 -70 -15 -123 0 -176
50 l-41 38 31 103 c17 57 41 137 53 177 l22 72 436 -2 436 -3 59 -199 c55
-186 58 -201 42 -213 -31 -22 -100 -26 -152 -9 -45 15 -49 15 -60 -1 -27 -36
-11 -108 34 -155 59 -61 230 -82 326 -40 l46 20 53 -20 c74 -28 193 -28 269 1
l56 21 49 -21 c71 -32 195 -31 252 1 49 28 82 86 82 146 0 62 -10 70 -59 50
-23 -9 -54 -16 -69 -16 -31 0 -97 30 -128 57 -27 24 -344 870 -344 917 0 49
37 97 103 131 31 17 57 33 57 36 0 3 -34 20 -75 38 -80 35 -151 91 -183 144
-11 18 -68 187 -127 376 -100 321 -107 346 -96 381 6 21 27 52 47 70 33 29 41
31 83 26 104 -14 96 -18 99 46 3 51 0 60 -28 91 -38 44 -103 67 -190 67 -69 0
-158 -21 -198 -47 -21 -13 -26 -13 -40 0 -60 54 -237 62 -332 15 l-52 -26 -46
26 c-38 21 -62 27 -132 29 -55 2 -101 -2 -131 -12z m530 -1085 l179 -595 -178
-3 c-98 -1 -261 -1 -362 0 l-184 3 163 550 c90 303 170 575 179 605 9 30 18
51 20 45 2 -5 84 -278 183 -605z m87 494 c13 -22 58 -142 99 -265 89 -264 119
-320 187 -351 44 -20 46 -22 29 -34 -10 -8 -24 -34 -30 -59 -15 -59 0 -128 79
-385 60 -192 83 -317 69 -371 l-6 -24 -10 25 c-86 212 -493 1489 -493 1546 0
15 53 -42 76 -82z"/>
</g>
</svg>
